# xmcd
#
# Track frame offsets:
#	150
#	14028
#	29798
#	46915
#	66489
#	87743
#	104824
#	123572
#	140803
#	154442
#
# Disc length: 2334 seconds
#
# Revision: 1
# Processed by: cddbd v1.4PL0 Copyright (c) Steve Scherf et al.
# Submitted via: EasyCDDAExtractor 5.1.0
#
DISCID=a6091c0a
DTITLE=Mike Graham - Just West of Nowhere
DYEAR=1999
DGENRE=Country
TTITLE0=I Feel Like Drinkin'
TTITLE1=Song About Nothin'
TTITLE2=October
TTITLE3=West Texas Sailing
TTITLE4=I Miss West Texas
TTITLE5=Tecumseh Valley
TTITLE6=Tossin' and Turnin'
TTITLE7=Ten Shots
TTITLE8=Dance With A Mem'ry
TTITLE9=A Frame
EXTD=Produced by Larry Joe Taylor
EXTT0=
EXTT1=
EXTT2=
EXTT3=
EXTT4=
EXTT5=
EXTT6=
EXTT7=
EXTT8=
EXTT9=
PLAYORDER=
